<svg width="134" height="134" viewBox="0 0 134 134" fill="none" xmlns="http://www.w3.org/2000/svg">
<g clip-path="url(#clip0_92_147)">
<path d="M0 0C44.22 0 88.44 0 134 0C134 44.22 134 88.44 134 134C89.78 134 45.56 134 0 134C0 89.78 0 45.56 0 0Z" fill="#002353"/>
<path d="M57.7689 50.0267C65.0407 50.0267 72.3124 50.0267 79.8045 50.0267C79.8045 51.992 79.8045 53.9573 79.8045 55.9822C77.2495 55.9822 74.6946 55.9822 72.0623 55.9822C72.0623 72.2945 72.0623 88.6068 72.0623 105.413C74.6172 105.413 77.1721 105.413 79.8045 105.413C79.8045 107.379 79.8045 109.344 79.8045 111.369C72.5327 111.369 65.261 111.369 57.7689 111.369C57.7689 91.126 57.7689 70.883 57.7689 50.0267Z" fill="#F9FAFA"/>
<circle cx="65.66" cy="34.0955" r="11.4644" fill="#EFAA03"/>
</g>
<defs>
<clipPath id="clip0_92_147">
<rect width="134" height="134" fill="white"/>
</clipPath>
</defs>
</svg>
